<svg xmlns="http://www.w3.org/2000/svg" xmlns:xlink="http://www.w3.org/1999/xlink" width="83" height="83" viewBox="0 0 83 83">
  <defs>
    <linearGradient id="linear-gradient" x1="0.5" y1="1" x2="0.5" gradientUnits="objectBoundingBox">
      <stop offset="0" stop-color="gray" stop-opacity="0.251"/>
      <stop offset="0.54" stop-color="gray" stop-opacity="0.122"/>
      <stop offset="1" stop-color="gray" stop-opacity="0.102"/>
    </linearGradient>
  </defs>
  <g id="Group_2047" data-name="Group 2047" transform="translate(12634 11289)">
    <g id="Group_2044" data-name="Group 2044" transform="translate(-1 -10)">
      <rect id="Rectangle_1777" data-name="Rectangle 1777" width="37.736" height="42.117" transform="translate(-12633 -11272)" fill="url(#linear-gradient)"/>
      <rect id="Rectangle_1778" data-name="Rectangle 1778" width="36.488" height="13.08" transform="translate(-12632.377 -11243.88)" fill="#fff"/>
      <rect id="Rectangle_1779" data-name="Rectangle 1779" width="1.414" height="6.702" transform="translate(-12629.382 -11240.777)" fill="#db4437"/>
      <g id="Group_2021" data-name="Group 2021" transform="translate(-12626.591 -11240.777)" opacity="0.7">
        <rect id="Rectangle_1780" data-name="Rectangle 1780" width="1.414" height="6.702" fill="#db4437"/>
      </g>
      <g id="Group_2022" data-name="Group 2022" transform="translate(-12623.799 -11240.777)" opacity="0.6">
        <rect id="Rectangle_1781" data-name="Rectangle 1781" width="1.414" height="6.702" fill="#db4437"/>
      </g>
      <g id="Group_2023" data-name="Group 2023" transform="translate(-12621.007 -11240.777)" opacity="0.5">
        <rect id="Rectangle_1782" data-name="Rectangle 1782" width="1.414" height="6.702" fill="#db4437"/>
      </g>
      <g id="Group_2024" data-name="Group 2024" transform="translate(-12618.216 -11240.777)" opacity="0.5">
        <rect id="Rectangle_1783" data-name="Rectangle 1783" width="1.414" height="6.702" fill="#db4437"/>
      </g>
      <g id="Group_2025" data-name="Group 2025" transform="translate(-12615.425 -11240.777)" opacity="0.4">
        <rect id="Rectangle_1784" data-name="Rectangle 1784" width="1.414" height="6.702" fill="#db4437"/>
      </g>
      <g id="Group_2026" data-name="Group 2026" transform="translate(-12612.633 -11240.777)" opacity="0.3">
        <rect id="Rectangle_1785" data-name="Rectangle 1785" width="1.414" height="6.702" fill="#db4437"/>
      </g>
      <circle id="Ellipse_158" data-name="Ellipse 158" cx="3.412" cy="3.412" r="3.412" transform="translate(-12604.466 -11240.882)" fill="#6c63ff"/>
      <rect id="Rectangle_1786" data-name="Rectangle 1786" width="36.488" height="13.08" transform="translate(-12632.377 -11257.47)" fill="#fff"/>
      <rect id="Rectangle_1787" data-name="Rectangle 1787" width="1.414" height="6.702" transform="translate(-12629.382 -11254.367)" fill="#f4b400"/>
      <g id="Group_2027" data-name="Group 2027" transform="translate(-12626.591 -11254.367)" opacity="0.7">
        <rect id="Rectangle_1788" data-name="Rectangle 1788" width="1.414" height="6.702" fill="#f4b400"/>
      </g>
      <g id="Group_2028" data-name="Group 2028" transform="translate(-12623.799 -11254.367)" opacity="0.6">
        <rect id="Rectangle_1789" data-name="Rectangle 1789" width="1.414" height="6.702" fill="#f4b400"/>
      </g>
      <g id="Group_2029" data-name="Group 2029" transform="translate(-12621.007 -11254.367)" opacity="0.5">
        <rect id="Rectangle_1790" data-name="Rectangle 1790" width="1.414" height="6.702" fill="#f4b400"/>
      </g>
      <g id="Group_2030" data-name="Group 2030" transform="translate(-12618.216 -11254.367)" opacity="0.5">
        <rect id="Rectangle_1791" data-name="Rectangle 1791" width="1.414" height="6.702" fill="#f4b400"/>
      </g>
      <g id="Group_2031" data-name="Group 2031" transform="translate(-12615.425 -11254.367)" opacity="0.4">
        <rect id="Rectangle_1792" data-name="Rectangle 1792" width="1.414" height="6.702" fill="#f4b400"/>
      </g>
      <g id="Group_2032" data-name="Group 2032" transform="translate(-12612.633 -11254.367)" opacity="0.3">
        <rect id="Rectangle_1793" data-name="Rectangle 1793" width="1.414" height="6.702" fill="#f4b400"/>
      </g>
      <circle id="Ellipse_159" data-name="Ellipse 159" cx="3.412" cy="3.412" r="3.412" transform="translate(-12604.466 -11254.47)" fill="#6c63ff"/>
      <rect id="Rectangle_1794" data-name="Rectangle 1794" width="36.488" height="13.08" transform="translate(-12632.377 -11271.059)" fill="#fff"/>
      <rect id="Rectangle_1795" data-name="Rectangle 1795" width="1.414" height="6.702" transform="translate(-12629.382 -11267.956)" fill="#0f9d58"/>
      <g id="Group_2033" data-name="Group 2033" transform="translate(-12626.591 -11267.956)" opacity="0.7">
        <rect id="Rectangle_1796" data-name="Rectangle 1796" width="1.414" height="6.702" fill="#0f9d58"/>
      </g>
      <g id="Group_2034" data-name="Group 2034" transform="translate(-12623.799 -11267.956)" opacity="0.6">
        <rect id="Rectangle_1797" data-name="Rectangle 1797" width="1.414" height="6.702" fill="#0f9d58"/>
      </g>
      <g id="Group_2035" data-name="Group 2035" transform="translate(-12621.007 -11267.956)" opacity="0.5">
        <rect id="Rectangle_1798" data-name="Rectangle 1798" width="1.414" height="6.702" fill="#0f9d58"/>
      </g>
      <g id="Group_2036" data-name="Group 2036" transform="translate(-12618.216 -11267.956)" opacity="0.5">
        <rect id="Rectangle_1799" data-name="Rectangle 1799" width="1.414" height="6.702" fill="#0f9d58"/>
      </g>
      <g id="Group_2037" data-name="Group 2037" transform="translate(-12615.425 -11267.956)" opacity="0.4">
        <rect id="Rectangle_1800" data-name="Rectangle 1800" width="1.414" height="6.702" fill="#0f9d58"/>
      </g>
      <g id="Group_2038" data-name="Group 2038" transform="translate(-12612.633 -11267.956)" opacity="0.3">
        <rect id="Rectangle_1801" data-name="Rectangle 1801" width="1.414" height="6.702" fill="#0f9d58"/>
      </g>
      <circle id="Ellipse_160" data-name="Ellipse 160" cx="3.678" cy="3.678" r="3.678" transform="translate(-12604.732 -11268.325)" fill="url(#linear-gradient)"/>
      <circle id="Ellipse_161" data-name="Ellipse 161" cx="3.678" cy="3.678" r="3.678" transform="translate(-12604.732 -11254.646)" fill="#db4437"/>
      <circle id="Ellipse_162" data-name="Ellipse 162" cx="3.678" cy="3.678" r="3.678" transform="translate(-12604.732 -11241.057)" fill="#4285f4"/>
      <circle id="Ellipse_163" data-name="Ellipse 163" cx="3.412" cy="3.412" r="3.412" transform="translate(-12604.466 -11268.06)" fill="#f4b400"/>
      <path id="Path_996" data-name="Path 996" d="M685.094,703.08s1.094,7.389,7.554,9.853H666.48c6.459-2.463,7.554-9.853,7.554-9.853Z" transform="translate(-13251.876 -11917.195)" fill="#b9b9b9"/>
      <rect id="Rectangle_1802" data-name="Rectangle 1802" width="26.41" height="1.561" transform="translate(-12585.523 -11204.263)" fill="url(#linear-gradient)"/>
      <rect id="Rectangle_1803" data-name="Rectangle 1803" width="26.163" height="1.205" transform="translate(-12585.393 -11204.263)" fill="#b9b9b9"/>
      <path id="Path_997" data-name="Path 997" d="M611.451,417H568.987a.987.987,0,0,0-.987.987v26.754a1.181,1.181,0,0,0,1.181,1.181h42.077a1.181,1.181,0,0,0,1.181-1.181V417.987A.987.987,0,0,0,611.451,417Z" transform="translate(-13162.438 -11657.381)" fill="url(#linear-gradient)"/>
      <path id="Path_998" data-name="Path 998" d="M426.807,348.78h41.212a.987.987,0,0,1,.987.987v22.9H425.82v-22.9A.987.987,0,0,1,426.807,348.78Z" transform="translate(-13019.724 -11588.757)" fill="#fdfdfd"/>
      <path id="Path_999" data-name="Path 999" d="M615.825,685.561H575a1.181,1.181,0,0,1-1.181-1.181v-2.76h43.186v2.76A1.181,1.181,0,0,1,615.825,685.561Z" transform="translate(-13167.724 -11897.705)" fill="#b9b9b9"/>
      <path id="Path_1082" data-name="Path 1082" d="M0,0H39.081V19.286H0Z" transform="translate(-12591.769 -11238.042)" fill="#4285f4"/>
      <path id="Path_1000" data-name="Path 1000" d="M450.861,371.076h37.559V369.79H449.34v19.286h1.521Z" transform="translate(-13041.084 -11607.838)" fill="#fff" opacity="0.2"/>
      <g id="Group_2042" data-name="Group 2042" transform="translate(37 -2)">
        <line id="Line_71" data-name="Line 71" y2="13" transform="translate(-12645.5 -11227.5)" fill="none" stroke="#0f9d58" stroke-width="2" stroke-dasharray="2"/>
        <line id="Line_72" data-name="Line 72" x2="14" transform="translate(-12646.5 -11214.5)" fill="none" stroke="#0f9d58" stroke-width="2" stroke-dasharray="2"/>
      </g>
      <g id="Group_2043" data-name="Group 2043" transform="translate(-12593.5 -11254.5)">
        <line id="Line_71-2" data-name="Line 71" y1="13" transform="translate(13)" fill="none" stroke="#0f9d58" stroke-width="2" stroke-dasharray="2"/>
        <line id="Line_72-2" data-name="Line 72" x1="14" transform="translate(0 0)" fill="none" stroke="#0f9d58" stroke-width="2" stroke-dasharray="2"/>
      </g>
    </g>
    <rect id="Rectangle_1804" data-name="Rectangle 1804" width="83" height="83" transform="translate(-12634 -11289)" fill="rgba(255,255,255,0)"/>
  </g>
</svg>
