<svg xmlns="http://www.w3.org/2000/svg" width="83" height="83.001" viewBox="0 0 83 83.001">
  <g id="Group_2049" data-name="Group 2049" transform="translate(12743 11061)">
    <g id="Group_2046" data-name="Group 2046" transform="translate(-1942.06 -75)">
      <path id="Path_1010" data-name="Path 1010" d="M494.952,531.494c0,1.756-11.15,11.9-36.53,11.9S419.3,533.6,419.3,531.848s14.214,2.592,39.594,2.592S494.952,529.736,494.952,531.494Z" transform="translate(-11216.24 -11446.396)" fill="#f7f7fd"/>
      <g id="Group_2041" data-name="Group 2041" transform="translate(-10795.251 -10985.149)">
        <ellipse id="Ellipse_179" data-name="Ellipse 179" cx="35.851" cy="16" rx="35.851" ry="16" transform="translate(0.577 0)" fill="#b9b9b9"/>
        <path id="Path_1034" data-name="Path 1034" d="M499.372,326.157c-1.586,8.343-17.259,14.892-36.363,14.892-19.271,0-35.052-6.665-36.405-15.109h-.134v13.6c6.3,6.585,20.254,11.164,36.45,11.164s30.148-4.579,36.452-11.164Z" transform="translate(-426.47 -304.437)" fill="#b9b9b9"/>
        <path id="Path_1035" data-name="Path 1035" d="M499.372,396.349c-1.586,8.341-17.259,14.892-36.363,14.892-19.271,0-35.052-6.665-36.405-15.112h-.134v13.6c6.3,6.585,20.254,11.162,36.45,11.162s30.148-4.577,36.452-11.162Z" transform="translate(-426.47 -358.085)" fill="#b9b9b9"/>
        <path id="Path_1036" data-name="Path 1036" d="M499.372,473.567c-1.586,8.343-17.259,14.892-36.363,14.892-19.271,0-35.052-6.663-36.405-15.109h-.134v14.664a2.26,2.26,0,0,0,.726,1.664c6.6,6.059,20.125,8.433,35.724,8.433s29.118-2.373,35.726-8.433a2.26,2.26,0,0,0,.726-1.664Z" transform="translate(-426.47 -417.106)" fill="#b9b9b9"/>
      </g>
      <ellipse id="Ellipse_180" data-name="Ellipse 180" cx="35.851" cy="16" rx="35.851" ry="16" transform="translate(-10795 -10986)" fill="#4285f4"/>
      <path id="Path_1037" data-name="Path 1037" d="M499.372,322.157c-1.586,8.343-17.259,14.892-36.363,14.892-19.271,0-35.052-6.665-36.405-15.109h-.134v13.6c6.3,6.585,20.254,11.164,36.45,11.164s30.148-4.579,36.452-11.164Z" transform="translate(-11221.721 -11286.528)" fill="#4285f4"/>
      <path id="Path_1038" data-name="Path 1038" d="M499.372,392.349c-1.586,8.341-17.259,14.892-36.363,14.892-19.271,0-35.052-6.665-36.405-15.112h-.134v13.6c6.3,6.585,20.254,11.162,36.45,11.162s30.148-4.577,36.452-11.162Z" transform="translate(-11221.721 -11340.177)" fill="#4285f4"/>
      <path id="Path_1039" data-name="Path 1039" d="M499.372,469.567c-1.586,8.343-17.259,14.892-36.363,14.892-19.271,0-35.052-6.663-36.405-15.109h-.134v14.664a2.26,2.26,0,0,0,.726,1.664c6.6,6.059,20.125,8.433,35.724,8.433s29.118-2.373,35.726-8.433a2.26,2.26,0,0,0,.726-1.664Z" transform="translate(-11221.721 -11399.197)" fill="#4285f4"/>
      <path id="Path_1078" data-name="Path 1078" d="M376.14,189.06a8.45,8.45,0,1,0,8.45,8.45A8.45,8.45,0,0,0,376.14,189.06Zm0,1.638a6.84,6.84,0,1,1-6.84,6.84,6.841,6.841,0,0,1,6.84-6.84m4.784,4.446-.769-.777a.4.4,0,0,0-.579,0l-4.829,4.784-2.036-2.068a.4.4,0,0,0-.579,0l-.773.769a.4.4,0,0,0,0,.579l3.1,3.122a.4.4,0,0,0,.579,0l5.887-5.843a.4.4,0,0,0,0-.579Z" transform="translate(-11134.69 -11167.06)" fill="#fdfdfd"/>
    </g>
    <rect id="Rectangle_1805" data-name="Rectangle 1805" width="83" height="83" transform="translate(-12743 -11061)" fill="rgba(255,255,255,0)"/>
  </g>
</svg>
