<svg id="Group_2154" data-name="Group 2154" xmlns="http://www.w3.org/2000/svg" width="153.398" height="98.288" viewBox="0 0 153.398 98.288">
  <rect id="Rectangle_1747" data-name="Rectangle 1747" width="153.332" height="98.201" transform="translate(0.066 0.087)" fill="#e6e6e6"/>
  <rect id="Rectangle_1748" data-name="Rectangle 1748" width="127.127" height="48.039" transform="translate(11.625 27.561)" fill="#fff"/>
  <rect id="Rectangle_1749" data-name="Rectangle 1749" width="30.511" height="1.743" transform="translate(34.787 35.883)" fill="#e6e6e6"/>
  <rect id="Rectangle_1750" data-name="Rectangle 1750" width="47.21" height="1.743" transform="translate(34.756 42.284)" fill="#6c63ff"/>
  <rect id="Rectangle_1751" data-name="Rectangle 1751" width="37.049" height="1.743" transform="translate(34.756 48.315)" fill="#e6e6e6"/>
  <rect id="Rectangle_1752" data-name="Rectangle 1752" width="21.793" height="1.743" transform="translate(34.756 54.347)" fill="#e6e6e6"/>
  <rect id="Rectangle_1753" data-name="Rectangle 1753" width="32.69" height="1.743" transform="translate(34.756 60.378)" fill="#e6e6e6"/>
  <rect id="Rectangle_1754" data-name="Rectangle 1754" width="3.487" height="3.487" transform="translate(20.949 35.382)" fill="#e6e6e6"/>
  <rect id="Rectangle_1755" data-name="Rectangle 1755" width="3.487" height="3.487" transform="translate(20.949 41.413)" fill="#6c63ff"/>
  <rect id="Rectangle_1756" data-name="Rectangle 1756" width="3.487" height="3.487" transform="translate(20.949 47.444)" fill="#e6e6e6"/>
  <rect id="Rectangle_1757" data-name="Rectangle 1757" width="3.487" height="3.487" transform="translate(20.949 53.476)" fill="#e6e6e6"/>
  <rect id="Rectangle_1758" data-name="Rectangle 1758" width="3.487" height="3.487" transform="translate(20.949 59.506)" fill="#e6e6e6"/>
  <rect id="Rectangle_1759" data-name="Rectangle 1759" width="31.216" height="31.216" transform="translate(101.297 33.579)" fill="#e6e6e6"/>
  <rect id="Rectangle_1760" data-name="Rectangle 1760" width="153.332" height="6.514" fill="#6c63ff"/>
  <circle id="Ellipse_153" data-name="Ellipse 153" cx="1.308" cy="1.308" r="1.308" transform="translate(3.533 2.022)" fill="#fff"/>
  <circle id="Ellipse_154" data-name="Ellipse 154" cx="1.308" cy="1.308" r="1.308" transform="translate(8.115 2.022)" fill="#fff"/>
  <circle id="Ellipse_155" data-name="Ellipse 155" cx="1.308" cy="1.308" r="1.308" transform="translate(12.699 2.022)" fill="#fff"/>
</svg>
